<?xml version="1.0" encoding="UTF-8" standalone="no"?>
<!-- Created with Inkscape (http://www.inkscape.org/) -->

<svg
   xmlns:dc="http://purl.org/dc/elements/1.1/"
   xmlns:cc="http://creativecommons.org/ns#"
   xmlns:rdf="http://www.w3.org/1999/02/22-rdf-syntax-ns#"
   xmlns:svg="http://www.w3.org/2000/svg"
   xmlns="http://www.w3.org/2000/svg"
   xmlns:xlink="http://www.w3.org/1999/xlink"
   xmlns:sodipodi="http://sodipodi.sourceforge.net/DTD/sodipodi-0.dtd"
   xmlns:inkscape="http://www.inkscape.org/namespaces/inkscape"
   version="1.0"
   width="166.15625"
   height="166.1875"
   id="svg2424"
   inkscape:version="0.91 r13725"
   sodipodi:docname="MyArch-Logo.svg">
  <metadata
     id="metadata6557">
    <rdf:RDF>
      <cc:Work
         rdf:about="">
        <dc:format>image/svg+xml</dc:format>
        <dc:type
           rdf:resource="http://purl.org/dc/dcmitype/StillImage" />
        <dc:title></dc:title>
      </cc:Work>
    </rdf:RDF>
  </metadata>
  <sodipodi:namedview
     pagecolor="#ffffff"
     bordercolor="#666666"
     borderopacity="1"
     objecttolerance="10"
     gridtolerance="10"
     guidetolerance="10"
     inkscape:pageopacity="0"
     inkscape:pageshadow="2"
     inkscape:window-width="1920"
     inkscape:window-height="1005"
     id="namedview6555"
     showgrid="false"
     inkscape:zoom="4.9341858"
     inkscape:cx="83.078125"
     inkscape:cy="83.09375"
     inkscape:window-x="1920"
     inkscape:window-y="29"
     inkscape:window-maximized="1"
     inkscape:current-layer="layer9"
     fit-margin-top="0"
     fit-margin-left="0"
     fit-margin-right="0"
     fit-margin-bottom="0" />
  <defs
     id="defs2426">
    <linearGradient
       x1="112.49854"
       y1="6.1372099"
       x2="112.49853"
       y2="129.3468"
       id="path1082_2_"
       gradientUnits="userSpaceOnUse"
       gradientTransform="translate(287,-83)">
      <stop
         id="stop193"
         style="stop-color:#ffffff;stop-opacity:0"
         offset="0" />
      <stop
         id="stop195"
         style="stop-color:#ffffff;stop-opacity:0.27450982"
         offset="1" />
      <midPointStop
         offset="0"
         style="stop-color:#FFFFFF"
         id="midPointStop197" />
      <midPointStop
         offset="0.5"
         style="stop-color:#FFFFFF"
         id="midPointStop199" />
      <midPointStop
         offset="1"
         style="stop-color:#000000"
         id="midPointStop201" />
    </linearGradient>
    <linearGradient
       x1="541.33502"
       y1="104.50665"
       x2="606.91248"
       y2="303.14029"
       id="linearGradient2544"
       xlink:href="#path1082_2_"
       gradientUnits="userSpaceOnUse"
       gradientTransform="matrix(-0.3937741,0,0,0.393752,357.51969,122.00151)" />
    <linearGradient
       id="linearGradient3388">
      <stop
         id="stop3390"
         style="stop-color:#000000;stop-opacity:0"
         offset="0" />
      <stop
         id="stop3392"
         style="stop-color:#000000;stop-opacity:0.37113401"
         offset="1" />
    </linearGradient>
    <linearGradient
       x1="490.72305"
       y1="237.72447"
       x2="490.72305"
       y2="183.9644"
       id="linearGradient4416"
       xlink:href="#linearGradient3388"
       gradientUnits="userSpaceOnUse"
       gradientTransform="matrix(0.749107,0,0,0.749107,-35.459862,91.44108)" />
  </defs>
  <g
     inkscape:groupmode="layer"
     id="layer8"
     inkscape:label="Layer 1"
     style="display:inline">
    <g
       transform="translate(-57.527313,-146.42741)"
       id="layer1"
       style="fill:#808000">
      <g
         transform="matrix(0.8746356,0,0,0.8746356,14.730518,23.408954)"
         id="g2424"
         style="display:inline;fill:#000000">
        <path
           d="m 105.8125,16.625 c -7.39687,18.135158 -11.858304,29.997682 -20.09375,47.59375 5.04936,5.35232 11.247211,11.585364 21.3125,18.625 C 96.210077,78.390904 88.828713,73.920352 83.3125,69.28125 72.7727,91.274163 56.259864,122.60209 22.75,182.8125 49.087628,167.60733 69.504089,158.23318 88.53125,154.65625 87.714216,151.1422 87.2497,147.34107 87.28125,143.375 l 0.03125,-0.84375 c 0.417917,-16.87382 9.195665,-29.84979 19.59375,-28.96875 10.39809,0.88104 18.48041,15.28242 18.0625,32.15625 -0.0786,3.17512 -0.43674,6.22955 -1.0625,9.0625 18.82058,3.68164 39.01873,13.03179 65,28.03125 -5.123,-9.4318 -9.69572,-17.93388 -14.0625,-26.03125 -6.87839,-5.33121 -14.05289,-12.2698 -28.6875,-19.78125 10.05899,2.61375 17.2611,5.62932 22.875,9 C 124.63297,63.338161 121.03766,52.354109 105.8125,16.625 Z"
           transform="matrix(1.1433333,0,0,1.1433333,22.920168,121.64318)"
           id="path2518"
           style="fill:#000000;fill-opacity:1;fill-rule:evenodd;stroke:none"
           inkscape:connector-curvature="0" />
      </g>
    </g>
  </g>
  <g
     inkscape:groupmode="layer"
     id="layer9"
     inkscape:label="Layer 2"
     style="display:inline">
    <g
       style="display:inline;fill:#008080"
       transform="matrix(0.25,0,0,0.25,-14.334726,-77.692379)"
       id="g6412">
      <g
         id="g6414"
         style="fill:#008080">
        <path
           style="fill:#008080"
           inkscape:connector-curvature="0"
           id="path6416"
           d="m 581.989,338.797 c 0,-1.171 0,-5.938 0,-5.938 0,-1.326 -1.076,-2.406 -2.402,-2.406 l -8.458,0 c -1.327,0 -2.404,1.081 -2.404,2.406 0,0 0,4.767 0,5.938 0,1.171 -2.545,1.835 -2.545,1.835 l 0,4.674 c 0,1.328 1.079,2.402 2.404,2.402 l 6.774,0 6.771,0 c 1.327,0 2.404,-1.074 2.404,-2.402 l 0,-4.674 c 10e-4,0 -2.544,-0.664 -2.544,-1.835 z" />
        <path
           style="fill:#008080"
           inkscape:connector-curvature="0"
           id="path6418"
           d="m 554.981,341.532 c -0.447,-1.084 -2.273,-5.485 -2.273,-5.485 -0.505,-1.227 -1.912,-1.809 -3.14,-1.302 l -7.811,3.235 c -1.227,0.51 -1.812,1.916 -1.302,3.143 0,0 1.823,4.403 2.273,5.483 0.446,1.083 -1.65,2.668 -1.65,2.668 l 1.788,4.32 c 0.509,1.227 1.916,1.811 3.141,1.3 l 6.258,-2.59 6.259,-2.593 c 1.224,-0.507 1.809,-1.916 1.298,-3.139 l -1.789,-4.322 c 0,0 -2.604,0.364 -3.052,-0.718 z" />
        <path
           style="fill:#008080"
           inkscape:connector-curvature="0"
           id="path6420"
           d="m 531.077,354.391 c -0.827,-0.828 -4.198,-4.195 -4.198,-4.195 -0.94,-0.94 -2.463,-0.94 -3.4,0 l -5.981,5.977 c -0.937,0.94 -0.937,2.462 0,3.402 0,0 3.375,3.366 4.201,4.194 0.825,0.83 -0.504,3.098 -0.504,3.098 l 3.306,3.309 c 0.939,0.937 2.46,0.937 3.4,0 l 4.787,-4.791 4.79,-4.788 c 0.94,-0.938 0.94,-2.462 0,-3.4 l -3.304,-3.307 c -10e-4,-10e-4 -2.269,1.331 -3.097,0.501 z" />
        <path
           style="fill:#008080"
           inkscape:connector-curvature="0"
           id="path6422"
           d="m 513.913,375.42 c -1.084,-0.449 -5.486,-2.27 -5.486,-2.27 -1.226,-0.509 -2.633,0.074 -3.14,1.3 l -3.238,7.813 c -0.509,1.227 0.076,2.635 1.302,3.141 0,0 4.403,1.823 5.486,2.273 1.082,0.446 0.721,3.054 0.721,3.054 l 4.318,1.786 c 1.228,0.509 2.635,-0.073 3.142,-1.3 l 2.591,-6.258 2.593,-6.257 c 0.509,-1.226 -0.075,-2.631 -1.3,-3.14 l -4.32,-1.789 c -10e-4,10e-4 -1.589,2.098 -2.669,1.647 z" />
        <path
           style="fill:#008080"
           inkscape:connector-curvature="0"
           id="path6424"
           d="m 506.103,401.421 c -1.171,0 -5.938,0 -5.938,0 -1.328,0 -2.401,1.075 -2.401,2.402 l -0.003,8.456 c 0.003,1.328 1.076,2.403 2.404,2.403 0,0 4.768,0 5.938,0 1.17,0 1.835,2.546 1.835,2.546 l 4.673,0 c 1.327,0 2.406,-1.076 2.406,-2.404 l 0,-6.771 0,-6.774 c 0,-1.328 -1.079,-2.404 -2.406,-2.404 l -4.673,0 c 0,0 -0.664,2.546 -1.835,2.546 z" />
        <path
           style="fill:#008080"
           inkscape:connector-curvature="0"
           id="path6426"
           d="m 508.836,428.427 c -1.083,0.446 -5.486,2.273 -5.486,2.273 -1.224,0.509 -1.807,1.914 -1.3,3.141 l 3.236,7.813 c 0.507,1.226 1.914,1.809 3.14,1.3 0,0 4.405,-1.824 5.486,-2.271 1.082,-0.449 2.668,1.647 2.668,1.647 l 4.32,-1.789 c 1.225,-0.505 1.809,-1.914 1.3,-3.14 l -2.593,-6.257 -2.591,-6.258 c -0.507,-1.229 -1.914,-1.81 -3.142,-1.304 l -4.318,1.79 c 0.001,0.002 0.362,2.609 -0.72,3.055 z" />
        <path
           style="fill:#008080"
           inkscape:connector-curvature="0"
           id="path6428"
           d="m 521.699,452.332 c -0.827,0.828 -4.198,4.198 -4.198,4.198 -0.94,0.94 -0.94,2.462 0,3.398 l 5.978,5.979 c 0.94,0.94 2.46,0.94 3.4,0 0,0 3.371,-3.366 4.198,-4.194 0.828,-0.83 3.097,0.501 3.097,0.501 l 3.304,-3.308 c 0.94,-0.937 0.94,-2.46 0,-3.398 l -4.786,-4.788 -4.791,-4.787 c -0.94,-0.94 -2.461,-0.94 -3.4,0 l -3.306,3.303 c -0.001,0 1.332,2.267 0.504,3.096 z" />
        <path
           style="fill:#008080"
           inkscape:connector-curvature="0"
           id="path6430"
           d="m 542.729,469.495 c -0.45,1.084 -2.273,5.487 -2.273,5.487 -0.508,1.227 0.075,2.631 1.304,3.142 l 7.809,3.236 c 1.228,0.507 2.635,-0.075 3.144,-1.302 0,0 1.822,-4.405 2.271,-5.485 0.446,-1.083 3.05,-0.721 3.05,-0.721 l 1.793,-4.32 c 0.507,-1.227 -0.078,-2.632 -1.302,-3.139 l -6.259,-2.595 -6.254,-2.591 c -1.229,-0.505 -2.634,0.074 -3.145,1.301 l -1.788,4.321 c 0,10e-4 2.098,1.585 1.65,2.666 z" />
        <path
           style="fill:#008080"
           inkscape:connector-curvature="0"
           id="path6432"
           d="m 568.724,477.307 c 0,1.171 0,5.938 0,5.938 0.002,1.325 1.078,2.402 2.408,2.402 l 8.454,0 c 1.327,0 2.402,-1.077 2.402,-2.406 0,0 0,-4.763 0,-5.936 0,-1.171 2.545,-1.833 2.545,-1.833 l 0,-4.678 c 0,-1.324 -1.077,-2.399 -2.402,-2.399 l -6.773,0 -6.772,0 c -1.327,0 -2.406,1.075 -2.406,2.399 l 0,4.678 c -10e-4,0 2.548,0.662 2.544,1.835 z" />
        <path
           style="fill:#008080"
           inkscape:connector-curvature="0"
           id="path6434"
           d="m 595.733,474.573 c 0.448,1.08 2.272,5.485 2.272,5.485 0.507,1.225 1.914,1.807 3.142,1.302 l 7.811,-3.236 c 1.225,-0.511 1.811,-1.915 1.302,-3.146 0,0 -1.821,-4.399 -2.271,-5.483 -0.45,-1.081 1.648,-2.665 1.648,-2.665 l -1.788,-4.321 c -0.51,-1.227 -1.916,-1.806 -3.143,-1.301 l -6.258,2.591 -6.255,2.591 c -1.226,0.511 -1.811,1.916 -1.302,3.143 l 1.789,4.32 c 0,-0.001 2.604,-0.363 3.053,0.72 z" />
        <path
           style="fill:#008080"
           inkscape:connector-curvature="0"
           id="path6436"
           d="m 619.637,461.713 c 0.828,0.828 4.199,4.194 4.199,4.194 0.942,0.94 2.46,0.94 3.401,0 l 5.979,-5.979 c 0.94,-0.937 0.94,-2.462 0,-3.398 0,0 -3.369,-3.37 -4.2,-4.198 -0.828,-0.828 0.505,-3.096 0.505,-3.096 l -3.306,-3.303 c -0.939,-0.944 -2.462,-0.94 -3.4,-0.004 l -4.789,4.791 -4.79,4.788 c -0.938,0.938 -0.938,2.462 0,3.398 l 3.304,3.305 c 0,0 2.272,-1.328 3.097,-0.498 z" />
        <path
           style="fill:#008080"
           inkscape:connector-curvature="0"
           id="path6438"
           d="m 636.8,440.68 c 1.085,0.449 5.487,2.273 5.487,2.273 1.225,0.505 2.634,-0.074 3.141,-1.3 l 3.238,-7.813 c 0.507,-1.227 -0.076,-2.636 -1.304,-3.145 0,0 -4.403,-1.823 -5.484,-2.27 -1.084,-0.45 -0.723,-3.054 -0.723,-3.054 l -4.318,-1.79 c -1.226,-0.507 -2.631,0.075 -3.142,1.302 l -2.589,6.256 -2.593,6.261 c -0.509,1.226 0.074,2.631 1.302,3.14 l 4.318,1.789 c 10e-4,0.002 1.587,-2.095 2.667,-1.649 z" />
        <path
           style="fill:#008080"
           inkscape:connector-curvature="0"
           id="path6440"
           d="m 644.612,414.683 c 1.17,0 5.937,0 5.937,0 1.328,0 2.403,-1.077 2.405,-2.404 l 0,-8.455 c -0.002,-1.327 -1.077,-2.406 -2.405,-2.406 0,0 -4.767,0 -5.937,0 -1.173,0 -1.833,-2.544 -1.833,-2.544 l -4.677,0.002 c -1.327,-0.002 -2.404,1.076 -2.404,2.404 l 0,6.771 0,6.774 c 0,1.328 1.077,2.404 2.404,2.404 l 4.677,0 c 0,0 0.663,-2.546 1.833,-2.546 z" />
        <path
           style="fill:#008080"
           inkscape:connector-curvature="0"
           id="path6442"
           d="m 641.878,387.677 c 1.081,-0.45 5.484,-2.273 5.484,-2.273 1.224,-0.509 1.809,-1.914 1.304,-3.143 l -3.238,-7.814 c -0.507,-1.226 -1.916,-1.805 -3.141,-1.3 0,0 -4.402,1.824 -5.487,2.273 -1.08,0.45 -2.666,-1.646 -2.666,-1.646 l -4.318,1.789 c -1.228,0.505 -1.811,1.914 -1.302,3.14 l 2.593,6.257 2.589,6.258 c 0.509,1.227 1.916,1.809 3.142,1.3 l 4.318,-1.786 c 0,-0.001 -0.362,-2.608 0.722,-3.055 z" />
        <path
           style="fill:#008080"
           inkscape:connector-curvature="0"
           id="path6444"
           d="m 629.016,363.769 c 0.829,-0.828 4.198,-4.194 4.198,-4.194 0.938,-0.94 0.938,-2.462 0.002,-3.402 l -5.979,-5.979 c -0.94,-0.938 -2.462,-0.938 -3.402,0 0,0 -3.369,3.37 -4.197,4.198 -0.829,0.83 -3.098,-0.502 -3.098,-0.502 l -3.304,3.307 c -0.938,0.938 -0.938,2.462 0,3.4 l 4.788,4.784 4.789,4.791 c 0.94,0.94 2.463,0.94 3.402,0.004 l 3.304,-3.309 c 0,0 -1.331,-2.268 -0.503,-3.098 z" />
        <path
           style="fill:#008080"
           inkscape:connector-curvature="0"
           id="path6446"
           d="m 607.984,346.606 c 0.45,-1.08 2.275,-5.483 2.275,-5.483 0.506,-1.227 -0.077,-2.633 -1.302,-3.143 l -7.811,-3.237 c -1.228,-0.505 -2.635,0.077 -3.144,1.304 0,0 -1.822,4.401 -2.271,5.485 -0.448,1.082 -3.052,0.719 -3.052,0.719 l -1.789,4.322 c -0.509,1.223 0.074,2.632 1.3,3.139 l 6.257,2.593 6.256,2.59 c 1.229,0.508 2.634,-0.073 3.145,-1.3 l 1.788,-4.32 c 0,-10e-4 -2.098,-1.586 -1.652,-2.669 z" />
      </g>
      <path
         style="fill:#008080"
         inkscape:connector-curvature="0"
         id="path6448"
         d="m 589.44,408.05 c 0,7.779 -6.304,14.084 -14.082,14.084 -7.779,0 -14.083,-6.305 -14.083,-14.084 0,-7.775 6.304,-14.082 14.083,-14.082 7.778,0 14.082,6.307 14.082,14.082 z" />
      <path
         style="fill:#008080"
         inkscape:connector-curvature="0"
         id="path6450"
         d="m 643.391,408.05 c 0,37.575 -30.46,68.034 -68.033,68.034 -37.574,0 -68.036,-30.459 -68.036,-68.034 0,-37.573 30.462,-68.034 68.036,-68.034 37.573,0 68.033,30.461 68.033,68.034 z m -68.033,-16.226 c -8.965,0 -16.229,7.266 -16.229,16.227 0,8.963 7.265,16.23 16.229,16.23 8.962,0 16.229,-7.268 16.229,-16.23 -10e-4,-8.962 -7.267,-16.227 -16.229,-16.227 z M 550.93,378.451 c -2.856,0 -5.174,2.315 -5.174,5.176 0,2.855 2.317,5.172 5.174,5.172 2.858,0 5.174,-2.316 5.174,-5.172 0,-2.861 -2.315,-5.176 -5.174,-5.176 z m -5.174,54.027 c 0,2.86 2.317,5.172 5.174,5.172 2.858,0 5.174,-2.312 5.174,-5.172 0,-2.856 -2.315,-5.172 -5.174,-5.172 -2.856,0 -5.174,2.316 -5.174,5.172 z m 54.029,5.172 c 2.856,0 5.172,-2.312 5.172,-5.172 0,-2.856 -2.315,-5.172 -5.172,-5.172 -2.858,0 -5.173,2.315 -5.173,5.172 0,2.86 2.314,5.172 5.173,5.172 z m 5.173,-54.024 c 0,-2.86 -2.317,-5.176 -5.174,-5.176 -2.858,0 -5.173,2.315 -5.173,5.176 0,2.855 2.314,5.172 5.173,5.172 2.857,0 5.174,-2.316 5.174,-5.172 z m -24.691,-16.224 c 0,-1.497 -1.216,-2.707 -2.713,-2.707 l -4.394,0 c -1.497,0 -2.713,1.21 -2.713,2.707 l 0,11.581 c 0,1.497 1.216,2.711 2.713,2.711 l 4.394,0 c 1.497,0 2.713,-1.214 2.713,-2.711 l 0,-11.581 z m -45.561,35.742 c -1.495,0 -2.708,1.213 -2.708,2.71 l 0,4.396 c 0,1.493 1.213,2.708 2.708,2.708 l 11.582,0 c 1.497,0 2.712,-1.215 2.712,-2.708 l 0,-4.396 c 0,-1.497 -1.215,-2.71 -2.712,-2.71 l -11.582,0 z m 35.742,45.559 c 0,1.497 1.216,2.707 2.713,2.707 l 4.394,0 c 1.495,0 2.713,-1.21 2.713,-2.707 l 0,-11.585 c 0,-1.494 -1.218,-2.707 -2.713,-2.707 l -4.394,0 c -1.497,0 -2.713,1.213 -2.713,2.707 l 0,11.585 z m 45.557,-35.745 c 1.497,0 2.71,-1.215 2.71,-2.708 l 0,-4.396 c 0,-1.497 -1.213,-2.71 -2.71,-2.71 l -11.58,0 c -1.497,0 -2.71,1.213 -2.71,2.71 l 0,4.396 c 0,1.493 1.213,2.708 2.71,2.708 l 11.58,0 z m 14.187,-3.043 c 0,0.481 0.393,0.868 0.874,0.868 l 1.413,0 c 0.48,0 0.87,-0.387 0.87,-0.868 l 0,-3.725 c 0,-0.481 -0.39,-0.872 -0.87,-0.872 l -1.413,0 c -0.481,0 -0.874,0.391 -0.874,0.872 l 0,3.725 z M 615.45,370.593 c 0.34,0.34 0.891,0.34 1.234,0 l 0.995,-1.001 c 0.343,-0.34 0.343,-0.891 0,-1.231 l -2.631,-2.632 c -0.34,-0.339 -0.891,-0.339 -1.233,0 l -0.996,0.998 c -0.343,0.343 -0.343,0.894 0,1.233 l 2.631,2.633 z m -38.231,-17.379 c 0.48,0 0.872,-0.391 0.872,-0.872 l 0,-1.414 c 0,-0.478 -0.392,-0.868 -0.872,-0.868 l -3.724,0 c -0.48,0 -0.87,0.389 -0.87,0.868 l 0,1.414 c 0,0.481 0.39,0.872 0.87,0.872 l 3.724,0 z m -39.321,14.746 c 0.339,-0.343 0.339,-0.895 0,-1.233 l -1,-1.002 c -0.339,-0.337 -0.892,-0.337 -1.231,0 l -2.633,2.636 c -0.341,0.339 -0.341,0.891 0,1.231 l 0.999,0.999 c 0.34,0.342 0.893,0.342 1.231,0 l 2.634,-2.631 z m -17.377,38.23 c 0,-0.481 -0.391,-0.872 -0.872,-0.872 l -1.414,0 c -0.479,0 -0.871,0.391 -0.871,0.872 l 0,3.721 c 0,0.481 0.388,0.872 0.872,0.872 l 1.411,0 c 0.483,0 0.874,-0.391 0.874,-0.872 l 0,-3.721 z m 14.743,39.321 c -0.341,-0.34 -0.892,-0.34 -1.233,0 l -0.997,1.001 c -0.341,0.339 -0.341,0.891 0,1.228 l 2.633,2.636 c 0.34,0.339 0.889,0.339 1.23,0 l 1.001,-0.998 c 0.339,-0.343 0.339,-0.895 -0.002,-1.233 l -2.632,-2.634 z m 38.232,17.378 c -0.482,0 -0.872,0.392 -0.872,0.869 l 0,1.418 c 0,0.478 0.39,0.868 0.872,0.868 l 3.724,0 c 0.48,0 0.87,-0.389 0.87,-0.872 l 0,-1.41 c -0.002,-0.481 -0.39,-0.873 -0.87,-0.873 l -3.724,0 z m 39.323,-14.745 c -0.343,0.339 -0.343,0.891 0,1.233 l 0.996,0.998 c 0.339,0.339 0.893,0.341 1.231,0 l 2.633,-2.632 c 0.34,-0.341 0.343,-0.893 0,-1.231 l -0.999,-0.999 c -0.34,-0.342 -0.891,-0.342 -1.231,0 l -2.63,2.631 z" />
    </g>
  </g>
</svg>
